<?xml version="1.0" encoding="UTF-8" ?>
<!DOCTYPE svg PUBLIC "-//W3C//DTD SVG 1.1//EN" "http://www.w3.org/Graphics/SVG/1.1/DTD/svg11.dtd">
<svg width="609pt" height="168pt" viewBox="0 0 609 168" version="1.1" xmlns="http://www.w3.org/2000/svg">
<g id="#da4c40ff">
<path fill="#da4c40" opacity="1.00" d=" M 61.93 4.05 C 81.53 -1.34 103.13 0.59 121.33 9.72 C 137.17 17.53 150.35 30.56 158.41 46.28 C 135.57 46.81 112.63 46.19 89.84 46.69 C 81.46 45.61 72.70 47.07 65.37 51.35 C 55.33 57.05 48.19 67.57 46.75 79.03 C 45.77 85.48 46.91 92.04 49.04 98.15 C 37.37 78.46 25.99 58.60 14.27 38.94 C 25.17 22.00 42.50 9.35 61.93 4.05 Z" />
</g>
<g id="#0000008a">
<path fill="#000000" opacity="0.54" d=" M 278.81 29.76 C 282.48 29.76 286.26 29.39 289.87 29.93 C 289.86 41.47 290.02 53.04 289.62 64.56 C 292.10 62.42 294.09 59.63 297.13 58.14 C 304.91 53.58 315.45 53.92 322.77 59.25 C 328.80 63.80 331.19 71.66 331.25 78.95 C 331.21 91.30 331.36 103.66 331.17 116.01 C 327.47 116.08 323.76 116.18 320.06 115.95 C 320.04 104.31 320.07 92.68 320.05 81.05 C 320.01 76.76 319.15 72.10 316.06 68.90 C 312.38 65.28 306.65 64.54 301.79 65.66 C 294.29 67.68 289.93 75.67 289.89 83.07 C 289.86 94.02 289.87 104.96 289.90 115.91 C 286.19 116.21 282.46 116.07 278.76 116.00 C 278.68 87.26 278.57 58.50 278.81 29.76 Z" />
<path fill="#000000" opacity="0.54" d=" M 226.91 59.86 C 234.50 54.91 244.31 53.75 252.96 56.28 C 260.60 58.52 266.83 64.53 269.85 71.83 C 266.79 73.61 263.34 74.75 260.04 76.06 C 258.86 75.47 258.74 73.95 257.98 72.98 C 253.42 65.12 242.11 62.92 234.56 67.63 C 224.75 73.42 221.98 87.19 226.96 97.04 C 230.18 103.74 237.51 108.61 245.09 107.71 C 251.67 107.36 257.58 103.01 260.22 97.03 C 263.64 97.71 266.92 99.48 270.07 101.01 C 268.32 106.29 264.24 110.67 259.62 113.69 C 246.58 121.81 227.34 118.18 218.85 105.14 C 209.30 91.13 212.26 69.25 226.91 59.86 Z" />
<path fill="#000000" opacity="0.54" d=" M 404.53 55.64 C 414.17 53.68 424.85 56.12 432.06 62.98 C 444.52 74.77 444.86 96.75 432.99 109.06 C 421.96 120.65 401.58 120.95 390.07 109.90 C 378.11 98.44 377.44 77.60 388.15 65.10 C 392.33 60.20 398.24 56.91 404.53 55.64 M 407.39 65.55 C 404.72 66.12 402.16 67.24 399.97 68.87 C 388.83 77.15 389.01 96.57 400.49 104.47 C 407.02 109.12 416.51 108.81 422.72 103.75 C 431.97 96.39 432.90 81.36 425.77 72.25 C 421.53 66.82 414.13 64.13 407.39 65.55 Z" />
<path fill="#000000" opacity="0.54" d=" M 471.90 56.75 C 479.91 53.29 490.52 54.85 496.13 61.87 C 497.23 63.08 497.65 64.76 498.84 65.90 C 502.29 61.16 507.11 57.27 512.88 55.82 C 519.99 54.04 528.41 54.90 533.89 60.18 C 538.64 64.77 540.37 71.59 540.59 78.00 C 540.71 90.61 540.53 103.21 540.69 115.81 C 536.95 116.17 533.06 116.34 529.35 115.73 C 529.52 103.85 529.42 91.96 529.41 80.08 C 529.25 75.36 528.31 69.76 523.98 67.03 C 519.12 64.24 512.47 64.52 508.08 68.11 C 503.66 71.71 501.30 77.43 501.20 83.06 C 501.10 94.04 501.33 105.04 501.09 116.02 C 497.40 116.10 493.71 116.10 490.03 116.02 C 489.95 104.36 490.04 92.69 489.98 81.02 C 489.86 76.71 489.40 71.96 486.42 68.59 C 483.18 65.15 477.87 64.66 473.48 65.61 C 466.08 67.74 461.82 75.70 461.76 83.04 C 461.76 93.98 461.72 104.92 461.79 115.86 C 458.10 116.28 454.37 116.01 450.67 116.03 C 450.51 96.35 450.42 76.62 450.71 56.96 C 454.20 56.92 457.70 56.88 461.19 56.99 C 461.35 59.66 461.22 62.34 461.17 65.02 C 464.31 61.80 467.52 58.36 471.90 56.75 Z" />
<path fill="#000000" opacity="0.54" d=" M 571.07 55.85 C 578.25 54.16 586.12 54.94 592.67 58.44 C 603.28 64.02 608.35 77.18 606.78 88.61 C 591.37 88.50 575.95 88.60 560.54 88.56 C 560.09 95.43 564.28 102.45 570.42 105.64 C 578.92 110.31 591.26 107.32 595.23 98.03 C 598.54 98.44 601.52 100.51 604.74 101.47 C 605.27 103.67 603.18 105.43 602.20 107.21 C 592.17 120.85 570.03 121.40 558.23 109.82 C 548.70 100.44 546.68 85.06 551.76 72.95 C 555.11 64.69 562.31 57.93 571.07 55.85 M 561.14 78.88 C 562.45 79.98 564.42 79.01 566.01 79.31 C 575.74 79.25 585.47 79.43 595.20 79.22 C 594.69 71.15 586.90 65.16 579.07 65.22 C 570.68 64.39 562.93 70.86 561.14 78.88 Z" />
<path fill="#000000" opacity="0.54" d=" M 354.61 65.66 C 358.90 56.94 371.13 52.86 379.65 57.18 C 378.52 60.44 377.03 63.57 375.82 66.80 C 374.21 67.34 372.53 66.46 370.88 66.54 C 364.47 65.95 358.23 70.11 355.82 75.98 C 353.79 80.39 354.32 85.33 354.25 90.02 C 354.21 98.69 354.34 107.35 354.19 116.01 C 350.49 116.08 346.78 116.15 343.08 115.98 C 343.05 96.31 343.02 76.65 343.09 56.99 C 346.66 56.92 350.24 56.83 353.81 57.04 C 353.93 59.97 353.62 62.92 353.96 65.84 L 354.61 65.66 Z" />
</g>
<g id="#159f5cff">
<path fill="#159f5c" opacity="1.00" d=" M 1.03 86.06 C 0.52 69.49 5.22 52.83 14.27 38.94 C 25.99 58.60 37.37 78.46 49.04 98.15 C 53.56 109.23 63.54 117.97 75.23 120.67 C 88.45 124.00 103.29 119.50 112.30 109.24 C 114.34 107.56 114.98 104.80 117.24 103.36 C 116.98 104.77 116.45 106.78 114.64 106.75 C 102.94 126.67 91.57 146.79 80.07 166.81 C 59.21 165.87 38.89 156.69 24.41 141.66 C 10.00 126.94 1.40 106.67 1.03 86.06 Z" />
</g>
<g id="#f1f1f1ff">
<path fill="#f1f1f1" opacity="1.00" d=" M 65.37 51.35 C 72.70 47.07 81.46 45.61 89.84 46.69 C 91.04 46.99 92.37 46.67 93.48 47.23 C 100.74 49.64 107.77 53.34 112.77 59.29 C 122.04 69.66 124.68 85.35 119.38 98.20 C 118.70 99.93 117.62 101.51 117.24 103.36 C 114.98 104.80 114.34 107.56 112.30 109.24 C 103.29 119.50 88.45 124.00 75.23 120.67 C 63.54 117.97 53.56 109.23 49.04 98.15 C 46.91 92.04 45.77 85.48 46.75 79.03 C 48.19 67.57 55.33 57.05 65.37 51.35 M 77.48 54.60 C 67.87 56.71 59.57 63.85 56.03 73.03 C 51.66 83.86 54.38 97.08 62.74 105.26 C 69.92 112.61 81.00 115.75 91.00 113.41 C 99.97 111.44 107.84 105.09 111.68 96.75 C 115.55 88.57 115.43 78.64 111.35 70.57 C 105.47 58.30 90.69 51.35 77.48 54.60 Z" />
</g>
<g id="#fecb40ff">
<path fill="#fecb40" opacity="1.00" d=" M 93.48 47.23 C 94.11 47.10 95.36 46.84 95.99 46.70 C 116.75 46.35 137.56 47.01 158.31 46.36 C 164.43 57.73 167.59 70.98 167.20 83.99 C 167.67 98.48 163.56 112.92 156.33 125.43 C 145.65 143.95 127.56 158.07 106.94 163.76 C 98.24 166.36 89.10 167.04 80.07 166.81 C 91.57 146.79 102.94 126.67 114.64 106.75 C 116.45 106.78 116.98 104.77 117.24 103.36 C 117.62 101.51 118.70 99.93 119.38 98.20 C 124.68 85.35 122.04 69.66 112.77 59.29 C 107.77 53.34 100.74 49.64 93.48 47.23 Z" />
</g>
<g id="#4788f4ff">
<path fill="#4788f4" opacity="1.00" d=" M 77.48 54.60 C 90.69 51.35 105.47 58.30 111.35 70.57 C 115.43 78.64 115.55 88.57 111.68 96.75 C 107.84 105.09 99.97 111.44 91.00 113.41 C 81.00 115.75 69.92 112.61 62.74 105.26 C 54.38 97.08 51.66 83.86 56.03 73.03 C 59.57 63.85 67.87 56.71 77.48 54.60 Z" />
</g>
</svg>
